<svg width="30" height="30" viewBox="0 0 30 30" fill="none" xmlns="http://www.w3.org/2000/svg">
<path d="M13.5734 1.89057C14.0224 0.508606 15.9776 0.508611 16.4266 1.89058L18.929 9.5922C19.1298 10.2102 19.7057 10.6287 20.3556 10.6287H28.4536C29.9066 10.6287 30.5108 12.4881 29.3352 13.3422L22.7838 18.1021C22.2581 18.484 22.0381 19.1611 22.2389 19.7791L24.7413 27.4808C25.1904 28.8627 23.6086 30.0119 22.4331 29.1578L15.8817 24.3979C15.3559 24.016 14.6441 24.016 14.1183 24.3979L7.56692 29.1578C6.39135 30.0119 4.80964 28.8627 5.25866 27.4807L7.76107 19.7791C7.96189 19.1611 7.7419 18.484 7.21617 18.1021L0.66477 13.3422C-0.510801 12.4881 0.0933666 10.6287 1.54645 10.6287H9.64442C10.2943 10.6287 10.8702 10.2102 11.071 9.5922L13.5734 1.89057Z" fill="#FFC573"/>
</svg>
