<svg width="18" height="18" viewBox="0 0 18 18" fill="none" xmlns="http://www.w3.org/2000/svg">
<path d="M0.93934 15.0104C0.353553 15.5962 0.353553 16.5459 0.93934 17.1317C1.52513 17.7175 2.47487 17.7175 3.06066 17.1317L0.93934 15.0104ZM17.6421 1.92891C17.6421 1.10048 16.9706 0.42891 16.1421 0.42891L2.64214 0.428909C1.81371 0.428909 1.14214 1.10048 1.14214 1.92891C1.14214 2.75734 1.81371 3.42891 2.64214 3.42891H14.6421V15.4289C14.6421 16.2573 15.3137 16.9289 16.1421 16.9289C16.9706 16.9289 17.6421 16.2573 17.6421 15.4289L17.6421 1.92891ZM3.06066 17.1317L17.2028 2.98957L15.0815 0.868249L0.93934 15.0104L3.06066 17.1317Z" fill="white"/>
</svg>
